<svg width="11.734169" height="13.000244" viewBox="0 0 11.7342 13.0002" fill="none" xmlns="http://www.w3.org/2000/svg" xmlns:xlink="http://www.w3.org/1999/xlink">
	<desc>
			Created with Pixso.
	</desc>
	<defs/>
	<path id="Vector" d="M4.12269 6.41687C4.32695 6.71252 4.26589 6.46619 4.26589 12.3583C4.26589 12.8855 4.86745 13.1873 5.29142 12.8719C7.10311 11.506 7.46508 11.3877 7.46508 10.7488C7.46508 6.45508 7.41504 6.69653 7.60828 6.41687L10.5503 2.41235L1.18073 2.41235L4.12269 6.41687Z" fill="#FFC94F" fill-opacity="1.000000" fill-rule="nonzero"/>
	<path id="Vector" d="M11.6618 0.326538C11.5566 0.125122 11.3505 0 11.1235 0L0.607826 0C0.117661 0 -0.170753 0.552979 0.11042 0.954712C0.112732 0.958496 0.0785065 0.911743 0.621284 1.65039L11.11 1.65039C11.5726 1.02087 11.8817 0.748901 11.6618 0.326538Z" fill="#FFC94F" fill-opacity="1.000000" fill-rule="nonzero"/>
</svg>
